{"asset":{"version":"2.0","generator":"AFRA pipeline"},"scene":0,"scenes":[{"nodes":[0]}],"nodes":[{"name":"TShirtRoot","children":[1,2,3,4,5,6,7,8,9,10]},{"name":"Pattern2D_2949190","mesh":0},{"name":"30","mesh":1},{"name":"31","mesh":2},{"name":"64","mesh":3},{"name":"70","mesh":4},{"name":"28","mesh":5},{"name":"71","mesh":6},{"name":"29","mesh":7},{"name":"Pattern2D_4474558","mesh":8},{"name":"Pattern2D_4491756","mesh":9}],"cameras":[],"meshes":[{"name":"Pattern2D_2949190","primitives":[{"attributes":{"POSITION":0,"NORMAL":1,"TEXCOORD_0":2},"indices":3,"material":0}]},{"name":"30","primitives":[{"attributes":{"POSITION":4,"NORMAL":5,"TEXCOORD_0":6},"indices":7,"material":0}]},{"name":"31","primitives":[{"attributes":{"POSITION":8,"NORMAL":9,"TEXCOORD_0":10},"indices":11,"material":0}]},{"name":"64","primitives":[{"attributes":{"POSITION":12,"NORMAL":13,"TEXCOORD_0":14},"indices":15,"material":0}]},{"name":"70","primitives":[{"attributes":{"POSITION":16,"NORMAL":17,"TEXCOORD_0":18},"indices":19,"material":0}]},{"name":"28","primitives":[{"attributes":{"POSITION":20,"NORMAL":21,"TEXCOORD_0":22},"indices":23,"material":0}]},{"name":"71","primitives":[{"attributes":{"POSITION":24,"NORMAL":25,"TEXCOORD_0":26},"indices":27,"material":0}]},{"name":"29","primitives":[{"attributes":{"POSITION":28,"NORMAL":29,"TEXCOORD_0":30},"indices":31,"material":0}]},{"name":"Pattern2D_4474558","primitives":[{"attributes":{"POSITION":32,"NORMAL":33,"TEXCOORD_0":34},"indices":35,"material":0}]},{"name":"Pattern2D_4491756","primitives":[{"attributes":{"POSITION":36,"NORMAL":37,"TEXCOORD_0":38},"indices":39,"material":0}]}],"accessors":[{"bufferView":0,"componentType":5123,"count":4901,"type":"VEC3","normalized":true,"min":-0.3343202471733093,"max":1.3106956481933594},{"bufferView":2,"componentType":5122,"count":4901,"type":"VEC3","normalized":true},{"bufferView":4,"componentType":5123,"count":4901,"type":"VEC2","normalized":true},{"bufferView":5,"componentType":5123,"count":26670,"type":"SCALAR"},{"bufferView":6,"componentType":5123,"count":4927,"type":"VEC3","normalized":true,"min":-0.10000613331794739,"max":1.3126945495605469},{"bufferView":8,"componentType":5122,"count":4927,"type":"VEC3","normalized":true},{"bufferView":10,"componentType":5123,"count":4927,"type":"VEC2","normalized":true},{"bufferView":11,"componentType":5123,"count":26826,"type":"SCALAR"},{"bufferView":12,"componentType":5123,"count":15332,"type":"VEC3","normalized":true,"min":-0.12649385631084442,"max":1.444954514503479},{"bufferView":13,"componentType":5122,"count":15332,"type":"VEC3","normalized":true},{"bufferView":14,"componentType":5123,"count":15332,"type":"VEC2","normalized":true},{"bufferView":15,"componentType":5123,"count":87276,"type":"SCALAR"},{"bufferView":16,"componentType":5123,"count":15418,"type":"VEC3","normalized":true,"min":-0.3343276083469391,"max":1.4428532123565674},{"bufferView":17,"componentType":5122,"count":15418,"type":"VEC3","normalized":true},{"bufferView":18,"componentType":5123,"count":15418,"type":"VEC2","normalized":true},{"bufferView":19,"componentType":5123,"count":87768,"type":"SCALAR"},{"bufferView":20,"componentType":5123,"count":58099,"type":"VEC3","normalized":true,"min":-0.21341559290885925,"max":1.5103299617767334},{"bufferView":22,"componentType":5122,"count":58099,"type":"VEC3","normalized":true},{"bufferView":24,"componentType":5123,"count":58099,"type":"VEC2","normalized":true},{"bufferView":25,"componentType":5123,"count":340200,"type":"SCALAR"},{"bufferView":26,"componentType":5123,"count":60887,"type":"VEC3","normalized":true,"min":-0.21659156680107117,"max":1.5196058750152588},{"bufferView":28,"componentType":5122,"count":60887,"type":"VEC3","normalized":true},{"bufferView":30,"componentType":5123,"count":60887,"type":"VEC2","normalized":true},{"bufferView":31,"componentType":5123,"count":356646,"type":"SCALAR"},{"bufferView":32,"componentType":5123,"count":1955,"type":"VEC3","normalized":true,"min":-0.09145461022853851,"max":1.519432783126831},{"bufferView":34,"componentType":5122,"count":1955,"type":"VEC3","normalized":true},{"bufferView":36,"componentType":5123,"count":1955,"type":"VEC2","normalized":true},{"bufferView":37,"componentType":5123,"count":10290,"type":"SCALAR"},{"bufferView":38,"componentType":5123,"count":1986,"type":"VEC3","normalized":true,"min":-0.12069430202245712,"max":1.5341020822525024},{"bufferView":39,"componentType":5122,"count":1986,"type":"VEC3","normalized":true},{"bufferView":40,"componentType":5123,"count":1986,"type":"VEC2","normalized":true},{"bufferView":41,"componentType":5123,"count":10308,"type":"SCALAR"},{"bufferView":42,"componentType":5123,"count":5756,"type":"VEC3","normalized":true,"min":-0.19606024026870728,"max":0.8372592926025391},{"bufferView":43,"componentType":5122,"count":5756,"type":"VEC3","normalized":true},{"bufferView":44,"componentType":5123,"count":5756,"type":"VEC2","normalized":true},{"bufferView":45,"componentType":5123,"count":31266,"type":"SCALAR"},{"bufferView":46,"componentType":5123,"count":5836,"type":"VEC3","normalized":true,"min":-0.19608192145824432,"max":0.8300339579582214},{"bufferView":47,"componentType":5122,"count":5836,"type":"VEC3","normalized":true},{"bufferView":48,"componentType":5123,"count":5836,"type":"VEC2","normalized":true},{"bufferView":49,"componentType":5123,"count":31770,"type":"SCALAR"}],"bufferViews":[{"buffer":0,"byteOffset":0,"byteLength":29406},{"buffer":0,"byteOffset":29406,"byteLength":2},{"buffer":0,"byteOffset":29408,"byteLength":29406},{"buffer":0,"byteOffset":58814,"byteLength":2},{"buffer":0,"byteOffset":58816,"byteLength":19604},{"buffer":0,"byteOffset":78420,"byteLength":53340},{"buffer":0,"byteOffset":131760,"byteLength":29562},{"buffer":0,"byteOffset":161322,"byteLength":2},{"buffer":0,"byteOffset":161324,"byteLength":29562},{"buffer":0,"byteOffset":190886,"byteLength":2},{"buffer":0,"byteOffset":190888,"byteLength":19708},{"buffer":0,"byteOffset":210596,"byteLength":53652},{"buffer":0,"byteOffset":264248,"byteLength":91992},{"buffer":0,"byteOffset":356240,"byteLength":91992},{"buffer":0,"byteOffset":448232,"byteLength":61328},{"buffer":0,"byteOffset":509560,"byteLength":174552},{"buffer":0,"byteOffset":684112,"byteLength":92508},{"buffer":0,"byteOffset":776620,"byteLength":92508},{"buffer":0,"byteOffset":869128,"byteLength":61672},{"buffer":0,"byteOffset":930800,"byteLength":175536},{"buffer":0,"byteOffset":1106336,"byteLength":348594},{"buffer":0,"byteOffset":1454930,"byteLength":2},{"buffer":0,"byteOffset":1454932,"byteLength":348594},{"buffer":0,"byteOffset":1803526,"byteLength":2},{"buffer":0,"byteOffset":1803528,"byteLength":232396},{"buffer":0,"byteOffset":2035924,"byteLength":680400},{"buffer":0,"byteOffset":2716324,"byteLength":365322},{"buffer":0,"byteOffset":3081646,"byteLength":2},{"buffer":0,"byteOffset":3081648,"byteLength":365322},{"buffer":0,"byteOffset":3446970,"byteLength":2},{"buffer":0,"byteOffset":3446972,"byteLength":243548},{"buffer":0,"byteOffset":3690520,"byteLength":713292},{"buffer":0,"byteOffset":4403812,"byteLength":11730},{"buffer":0,"byteOffset":4415542,"byteLength":2},{"buffer":0,"byteOffset":4415544,"byteLength":11730},{"buffer":0,"byteOffset":4427274,"byteLength":2},{"buffer":0,"byteOffset":4427276,"byteLength":7820},{"buffer":0,"byteOffset":4435096,"byteLength":20580},{"buffer":0,"byteOffset":4455676,"byteLength":11916},{"buffer":0,"byteOffset":4467592,"byteLength":11916},{"buffer":0,"byteOffset":4479508,"byteLength":7944},{"buffer":0,"byteOffset":4487452,"byteLength":20616},{"buffer":0,"byteOffset":4508068,"byteLength":34536},{"buffer":0,"byteOffset":4542604,"byteLength":34536},{"buffer":0,"byteOffset":4577140,"byteLength":23024},{"buffer":0,"byteOffset":4600164,"byteLength":62532},{"buffer":0,"byteOffset":4662696,"byteLength":35016},{"buffer":0,"byteOffset":4697712,"byteLength":35016},{"buffer":0,"byteOffset":4732728,"byteLength":23344},{"buffer":0,"byteOffset":4756072,"byteLength":63540}],"buffers":[{"byteLength":4819612,"uri":"tshirt.bin"}],"materials":[{"name":"TShirtFabric","pbrMetallicRoughness":{"baseColorTexture":{"index":0},"baseColorFactor":[1,1,1,1],"metallicFactor":0,"roughnessFactor":1},"normalTexture":{"index":1},"doubleSided":true}],"textures":[{"source":0,"sampler":0},{"source":1,"sampler":0}],"images":[{"uri":"tshirt_diffuse.jpg"},{"uri":"tshirt_normal.jpg"}],"samplers":[{"magFilter":9729,"minFilter":9987,"wrapS":10497,"wrapT":10497}]}